<?xml version="1.0" standalone="no"?><!DOCTYPE svg PUBLIC "-//W3C//DTD SVG 1.1//EN" "http://www.w3.org/Graphics/SVG/1.1/DTD/svg11.dtd"><svg t="1570366333427" class="icon" viewBox="0 0 1024 1024" version="1.1" xmlns="http://www.w3.org/2000/svg" p-id="9304" xmlns:xlink="http://www.w3.org/1999/xlink" width="200" height="200"><defs><style type="text/css"></style></defs><path d="M512 341.333333c-95.573333 0-170.666667 75.093333-170.666667 170.666667s75.093333 170.666667 170.666667 170.666667 170.666667-75.093333 170.666667-170.666667-75.093333-170.666667-170.666667-170.666667z m0 204.8c-20.48 0-34.133333-13.653333-34.133333-34.133333s13.653333-34.133333 34.133333-34.133333 34.133333 13.653333 34.133333 34.133333-13.653333 34.133333-34.133333 34.133333z" fill="#ffffff" p-id="9305"></path><path d="M512 0C228.693333 0 0 228.693333 0 512s228.693333 512 512 512 512-228.693333 512-512S795.306667 0 512 0z m17.066667 955.733333H512c-116.053333 0-232.106667-47.786667-314.026667-129.706666-6.826667-6.826667-6.826667-17.066667 0-23.893334s17.066667-6.826667 23.893334 0c81.92 81.92 191.146667 122.88 307.2 119.466667 10.24 0 17.066667 6.826667 17.066666 17.066667 0 6.826667-6.826667 17.066667-17.066666 17.066666z m-17.066667-238.933333c-112.64 0-204.8-92.16-204.8-204.8s92.16-204.8 204.8-204.8 204.8 92.16 204.8 204.8-92.16 204.8-204.8 204.8z m314.026667 109.226667c-3.413333 3.413333-6.826667 3.413333-13.653334 3.413333s-10.24 0-13.653333-3.413333c-6.826667-6.826667-6.826667-17.066667 0-23.893334 78.506667-78.506667 119.466667-180.906667 119.466667-290.133333s-40.96-211.626667-119.466667-290.133333c-6.826667-6.826667-6.826667-17.066667 0-23.893334s17.066667-6.826667 23.893333 0C907.946667 283.306667 955.733333 392.533333 955.733333 512s-47.786667 228.693333-129.706666 314.026667z" fill="#ffffff" p-id="9306"></path></svg>