<?xml version="1.0" standalone="no"?><!DOCTYPE svg PUBLIC "-//W3C//DTD SVG 1.1//EN" "http://www.w3.org/Graphics/SVG/1.1/DTD/svg11.dtd"><svg t="1570364708921" class="icon" viewBox="0 0 1024 1024" version="1.1" xmlns="http://www.w3.org/2000/svg" p-id="8680" xmlns:xlink="http://www.w3.org/1999/xlink" width="200" height="200"><defs><style type="text/css"></style></defs><path d="M716.517629 18.454989c0-6.817254-3.408627-13.634509-10.225881-17.043136-6.817254-3.408627-13.634509 0-17.043136 3.408628l-306.776444 303.367816 334.045461 334.045462V18.454989zM951.712903 925.149812L716.517629 693.363166 358.611778 335.457315 99.556114 72.993024c-6.817254-3.408627-20.451763-3.408627-27.269017 0s-3.408627 20.451763 0 27.269017L317.708252 342.274569H188.18042c-10.225881 0-17.043136 6.817254-17.043136 17.043136v306.776444c0 10.225881 6.817254 17.043136 17.043136 17.043135h163.614104l337.454088 337.454089c3.408627 3.408627 6.817254 3.408627 13.634509 3.408627h6.817254c6.817254-3.408627 10.225881-10.225881 10.225881-17.043136v-265.872918l207.926257 207.926257c3.408627 3.408627 6.817254 3.408627 13.634509 3.408627s10.225881 0 13.634508-3.408627c0-3.408627 0-17.043136-3.408627-23.860391z" fill="#ffffff" p-id="8681"></path></svg>