<?xml version="1.0" standalone="no"?><!DOCTYPE svg PUBLIC "-//W3C//DTD SVG 1.1//EN" "http://www.w3.org/Graphics/SVG/1.1/DTD/svg11.dtd"><svg t="1570364721730" class="icon" viewBox="0 0 1024 1024" version="1.1" xmlns="http://www.w3.org/2000/svg" p-id="8845" xmlns:xlink="http://www.w3.org/1999/xlink" width="200" height="200"><defs><style type="text/css"></style></defs><path d="M621.226667 0c-6.826667 0-13.653333 0-17.066667 3.413333L266.24 341.333333H102.4c-10.24 0-17.066667 6.826667-17.066667 17.066667v307.2c0 10.24 6.826667 17.066667 17.066667 17.066667h163.84l337.92 337.92c3.413333 3.413333 6.826667 3.413333 13.653333 3.413333h6.826667c6.826667-3.413333 10.24-10.24 10.24-17.066667V17.066667c-3.413333-6.826667-6.826667-13.653333-13.653333-17.066667zM750.933333 392.533333c-6.826667-6.826667-17.066667-6.826667-23.893333 0s-6.826667 17.066667 0 23.893334c27.306667 27.306667 40.96 61.44 40.96 95.573333s-13.653333 71.68-40.96 95.573333c-6.826667 6.826667-6.826667 17.066667 0 23.893334 3.413333 3.413333 6.826667 3.413333 13.653333 3.413333s10.24 0 13.653334-3.413333c30.72-30.72 51.2-75.093333 51.2-119.466667s-20.48-88.746667-54.613334-119.466667z" fill="#ffffff" p-id="8846"></path><path d="M802.133333 341.333333c-6.826667-6.826667-17.066667-6.826667-23.893333 0s-6.826667 17.066667 0 23.893334c37.546667 37.546667 61.44 88.746667 61.44 143.36s-20.48 105.813333-61.44 143.36c-6.826667 6.826667-6.826667 17.066667 0 23.893333 3.413333 3.413333 6.826667 3.413333 13.653333 3.413333s10.24 0 13.653334-3.413333c44.373333-44.373333 71.68-105.813333 71.68-167.253333s-30.72-119.466667-75.093334-167.253334z" fill="#ffffff" p-id="8847"></path><path d="M849.92 293.546667c-6.826667-6.826667-17.066667-6.826667-23.893333 0s-6.826667 17.066667 0 23.893333c105.813333 105.813333 105.813333 279.893333 0 385.706667-6.826667 6.826667-6.826667 17.066667 0 23.893333 3.413333 3.413333 6.826667 3.413333 13.653333 3.413333s10.24 0 13.653333-3.413333c116.053333-119.466667 116.053333-314.026667-3.413333-433.493333z" fill="#ffffff" p-id="8848"></path></svg>