<?xml version="1.0" standalone="no"?><!DOCTYPE svg PUBLIC "-//W3C//DTD SVG 1.1//EN" "http://www.w3.org/Graphics/SVG/1.1/DTD/svg11.dtd"><svg t="1570362908383" class="icon" viewBox="0 0 1024 1024" version="1.1" xmlns="http://www.w3.org/2000/svg" p-id="5006" xmlns:xlink="http://www.w3.org/1999/xlink" width="200" height="200"><defs><style type="text/css"></style></defs><path d="M789.333333 1024h-554.666666A234.965333 234.965333 0 0 1 0 789.333333v-554.666666C0 105.301333 105.301333 0 234.666667 0h554.666666C918.698667 0 1024 105.301333 1024 234.666667v554.666666c0 129.365333-105.301333 234.666667-234.666667 234.666667zM234.666667 42.666667A192.213333 192.213333 0 0 0 42.666667 234.666667v554.666666C42.666667 895.189333 128.810667 981.333333 234.666667 981.333333h554.666666c105.856 0 192-86.144 192-192v-554.666666C981.333333 128.768 895.189333 42.666667 789.333333 42.666667h-554.666666z" fill="#ffffff" p-id="5007"></path><path d="M448 725.333333h-128a21.333333 21.333333 0 0 1-21.333333-21.333333v-384a21.333333 21.333333 0 0 1 21.333333-21.333333h128a21.333333 21.333333 0 0 1 21.333333 21.333333v384a21.333333 21.333333 0 0 1-21.333333 21.333333zM341.333333 682.666667h85.333334V341.333333H341.333333v341.333334zM704 725.333333h-128a21.333333 21.333333 0 0 1-21.333333-21.333333v-384a21.333333 21.333333 0 0 1 21.333333-21.333333h128a21.333333 21.333333 0 0 1 21.333333 21.333333v384a21.333333 21.333333 0 0 1-21.333333 21.333333zM597.333333 682.666667h85.333334V341.333333h-85.333334v341.333334z" fill="#ffffff" p-id="5008"></path></svg>