<?xml version="1.0" standalone="no"?><!DOCTYPE svg PUBLIC "-//W3C//DTD SVG 1.1//EN" "http://www.w3.org/Graphics/SVG/1.1/DTD/svg11.dtd"><svg t="1570362638745" class="icon" viewBox="0 0 1024 1024" version="1.1" xmlns="http://www.w3.org/2000/svg" p-id="4446" xmlns:xlink="http://www.w3.org/1999/xlink" width="200" height="200"><defs><style type="text/css"></style></defs><path d="M789.333333 1024h-554.666666A234.922667 234.922667 0 0 1 0 789.333333v-554.666666C0 105.301333 105.258667 0 234.666667 0h554.666666C918.741333 0 1024 105.301333 1024 234.666667v554.666666c0 129.365333-105.258667 234.666667-234.666667 234.666667zM234.666667 42.666667A192.213333 192.213333 0 0 0 42.666667 234.666667v554.666666C42.666667 895.189333 128.810667 981.333333 234.666667 981.333333h554.666666c105.856 0 192-86.144 192-192v-554.666666C981.333333 128.810667 895.189333 42.666667 789.333333 42.666667h-554.666666z" fill="#ffffff" p-id="4447"></path><path d="M405.333333 725.333333a21.290667 21.290667 0 0 1-21.333333-21.333333v-384c0-7.808 4.266667-15.018667 11.093333-18.688a21.077333 21.077333 0 0 1 21.76 0.768l298.666667 192a21.205333 21.205333 0 0 1 0.042667 35.882667l-298.666667 192A21.418667 21.418667 0 0 1 405.333333 725.333333z m21.333334-366.250666v305.834666L664.533333 512 426.666667 359.082667z" fill="#ffffff" p-id="4448"></path></svg>