<?xml version="1.0" standalone="no"?><!DOCTYPE svg PUBLIC "-//W3C//DTD SVG 1.1//EN" "http://www.w3.org/Graphics/SVG/1.1/DTD/svg11.dtd"><svg t="1570362873171" class="icon" viewBox="0 0 1024 1024" version="1.1" xmlns="http://www.w3.org/2000/svg" p-id="4839" xmlns:xlink="http://www.w3.org/1999/xlink" width="200" height="200"><defs><style type="text/css"></style></defs><path d="M789.333333 1024h-554.666666A234.965333 234.965333 0 0 1 0 789.333333v-554.666666C0 105.301333 105.301333 0 234.666667 0h554.666666C918.698667 0 1024 105.301333 1024 234.666667v554.666666c0 129.365333-105.301333 234.666667-234.666667 234.666667zM234.666667 42.666667A192.213333 192.213333 0 0 0 42.666667 234.666667v554.666666C42.666667 895.189333 128.810667 981.333333 234.666667 981.333333h554.666666c105.856 0 192-86.144 192-192v-554.666666C981.333333 128.768 895.189333 42.666667 789.333333 42.666667h-554.666666z" fill="#ffffff" p-id="4840"></path><path d="M362.666667 725.333333a21.205333 21.205333 0 0 1-21.333334-21.333333v-384c0-7.808 4.266667-15.018667 11.136-18.688a21.205333 21.205333 0 0 1 21.76 0.725333l298.666667 192c6.058667 3.968 9.770667 10.709333 9.770667 17.962667s-3.712 13.994667-9.770667 17.962667l-298.666667 192A21.418667 21.418667 0 0 1 362.666667 725.333333zM384 359.082667v305.834666L621.866667 512 384 359.082667z" fill="#ffffff" p-id="4841"></path><path d="M661.333333 725.333333a21.333333 21.333333 0 0 1-21.333333-21.333333v-384a21.333333 21.333333 0 0 1 42.666667 0v384a21.333333 21.333333 0 0 1-21.333334 21.333333z" fill="#ffffff" p-id="4842"></path></svg>